<svg xmlns="http://www.w3.org/2000/svg" height="32" width="32" viewBox="0 0 96 96"><switch><g><path d="M48 4C23.699 4 4 23.699 4 48s19.699 44 44 44 44-19.699 44-44S72.301 4 48 4zm0 80c-19.882 0-36-16.118-36-36s16.118-36 36-36 36 16.118 36 36-16.118 36-36 36zm0-64c-15.464 0-28 12.536-28 28s12.536 28 28 28 28-12.536 28-28-12.536-28-28-28zm0 48c-11.046 0-20-8.954-20-20s8.954-20 20-20 20 8.954 20 20-8.954 20-20 20zm0-32c-6.627 0-12 5.373-12 12s5.373 12 12 12 12-5.373 12-12-5.373-12-12-12zm0 16a4 4 0 1 1 0-8 4 4 0 0 1 0 8z"/></g></switch></svg>